<mxfile host="app.diagrams.net" modified="2020-08-05T00:24:36.996Z" agent="5.0 (Macintosh; Intel Mac OS X 10_14_6) AppleWebKit/537.36 (KHTML, like Gecko) Chrome/70.0.3538.77 Safari/537.36" etag="U--psYu-jXV6G85UO-zx" version="13.5.9" type="github">
  <diagram id="C5RBs43oDa-KdzZeNtuy" name="Page-1">
    <mxGraphModel dx="999" dy="573" grid="1" gridSize="10" guides="1" tooltips="1" connect="1" arrows="1" fold="1" page="1" pageScale="1" pageWidth="827" pageHeight="1169" math="0" shadow="0">
      <root>
        <mxCell id="WIyWlLk6GJQsqaUBKTNV-0" />
        <mxCell id="WIyWlLk6GJQsqaUBKTNV-1" parent="WIyWlLk6GJQsqaUBKTNV-0" />
        <mxCell id="BYyM6eGmgJWS8Cs3bAvA-7" style="edgeStyle=orthogonalEdgeStyle;rounded=0;orthogonalLoop=1;jettySize=auto;html=1;exitX=1;exitY=0.5;exitDx=0;exitDy=0;entryX=0;entryY=0.5;entryDx=0;entryDy=0;dashed=1;dashPattern=1 2;" edge="1" parent="WIyWlLk6GJQsqaUBKTNV-1" source="WIyWlLk6GJQsqaUBKTNV-3" target="BYyM6eGmgJWS8Cs3bAvA-6">
          <mxGeometry relative="1" as="geometry" />
        </mxCell>
        <mxCell id="BYyM6eGmgJWS8Cs3bAvA-11" style="edgeStyle=orthogonalEdgeStyle;rounded=0;orthogonalLoop=1;jettySize=auto;html=1;exitX=0.5;exitY=1;exitDx=0;exitDy=0;entryX=0.5;entryY=0;entryDx=0;entryDy=0;" edge="1" parent="WIyWlLk6GJQsqaUBKTNV-1" source="WIyWlLk6GJQsqaUBKTNV-3" target="BYyM6eGmgJWS8Cs3bAvA-10">
          <mxGeometry relative="1" as="geometry" />
        </mxCell>
        <mxCell id="WIyWlLk6GJQsqaUBKTNV-3" value="首页" style="rounded=1;whiteSpace=wrap;html=1;fontSize=12;glass=0;strokeWidth=1;shadow=0;" parent="WIyWlLk6GJQsqaUBKTNV-1" vertex="1">
          <mxGeometry x="90" y="240" width="120" height="40" as="geometry" />
        </mxCell>
        <mxCell id="BYyM6eGmgJWS8Cs3bAvA-4" style="edgeStyle=orthogonalEdgeStyle;rounded=0;orthogonalLoop=1;jettySize=auto;html=1;exitX=1;exitY=0.5;exitDx=0;exitDy=0;dashed=1;dashPattern=1 2;" edge="1" parent="WIyWlLk6GJQsqaUBKTNV-1" source="BYyM6eGmgJWS8Cs3bAvA-0" target="BYyM6eGmgJWS8Cs3bAvA-1">
          <mxGeometry relative="1" as="geometry" />
        </mxCell>
        <mxCell id="BYyM6eGmgJWS8Cs3bAvA-5" style="edgeStyle=orthogonalEdgeStyle;rounded=0;orthogonalLoop=1;jettySize=auto;html=1;exitX=0.5;exitY=1;exitDx=0;exitDy=0;entryX=0.5;entryY=0;entryDx=0;entryDy=0;" edge="1" parent="WIyWlLk6GJQsqaUBKTNV-1" source="BYyM6eGmgJWS8Cs3bAvA-0" target="WIyWlLk6GJQsqaUBKTNV-3">
          <mxGeometry relative="1" as="geometry" />
        </mxCell>
        <mxCell id="BYyM6eGmgJWS8Cs3bAvA-0" value="登陆" style="rounded=1;whiteSpace=wrap;html=1;" vertex="1" parent="WIyWlLk6GJQsqaUBKTNV-1">
          <mxGeometry x="90" y="140" width="120" height="40" as="geometry" />
        </mxCell>
        <mxCell id="BYyM6eGmgJWS8Cs3bAvA-23" style="edgeStyle=orthogonalEdgeStyle;rounded=0;orthogonalLoop=1;jettySize=auto;html=1;exitX=1;exitY=0.5;exitDx=0;exitDy=0;entryX=0;entryY=0.5;entryDx=0;entryDy=0;dashed=1;dashPattern=1 2;" edge="1" parent="WIyWlLk6GJQsqaUBKTNV-1" source="BYyM6eGmgJWS8Cs3bAvA-1" target="BYyM6eGmgJWS8Cs3bAvA-22">
          <mxGeometry relative="1" as="geometry" />
        </mxCell>
        <mxCell id="BYyM6eGmgJWS8Cs3bAvA-26" style="edgeStyle=orthogonalEdgeStyle;rounded=0;orthogonalLoop=1;jettySize=auto;html=1;exitX=0.5;exitY=0;exitDx=0;exitDy=0;entryX=0.5;entryY=1;entryDx=0;entryDy=0;dashed=1;dashPattern=1 2;" edge="1" parent="WIyWlLk6GJQsqaUBKTNV-1" source="BYyM6eGmgJWS8Cs3bAvA-1" target="BYyM6eGmgJWS8Cs3bAvA-24">
          <mxGeometry relative="1" as="geometry" />
        </mxCell>
        <mxCell id="BYyM6eGmgJWS8Cs3bAvA-30" style="edgeStyle=orthogonalEdgeStyle;rounded=0;orthogonalLoop=1;jettySize=auto;html=1;exitX=0.5;exitY=0;exitDx=0;exitDy=0;entryX=0.5;entryY=1;entryDx=0;entryDy=0;dashed=1;dashPattern=1 2;" edge="1" parent="WIyWlLk6GJQsqaUBKTNV-1" source="BYyM6eGmgJWS8Cs3bAvA-1" target="BYyM6eGmgJWS8Cs3bAvA-25">
          <mxGeometry relative="1" as="geometry" />
        </mxCell>
        <mxCell id="BYyM6eGmgJWS8Cs3bAvA-1" value="CIS" style="ellipse;whiteSpace=wrap;html=1;" vertex="1" parent="WIyWlLk6GJQsqaUBKTNV-1">
          <mxGeometry x="260" y="140" width="70" height="40" as="geometry" />
        </mxCell>
        <mxCell id="BYyM6eGmgJWS8Cs3bAvA-9" style="edgeStyle=orthogonalEdgeStyle;rounded=0;orthogonalLoop=1;jettySize=auto;html=1;exitX=1;exitY=0.5;exitDx=0;exitDy=0;entryX=0;entryY=0.5;entryDx=0;entryDy=0;dashed=1;dashPattern=1 2;" edge="1" parent="WIyWlLk6GJQsqaUBKTNV-1" source="BYyM6eGmgJWS8Cs3bAvA-6" target="BYyM6eGmgJWS8Cs3bAvA-8">
          <mxGeometry relative="1" as="geometry" />
        </mxCell>
        <mxCell id="BYyM6eGmgJWS8Cs3bAvA-6" value="SS" style="ellipse;whiteSpace=wrap;html=1;" vertex="1" parent="WIyWlLk6GJQsqaUBKTNV-1">
          <mxGeometry x="260" y="240" width="70" height="40" as="geometry" />
        </mxCell>
        <mxCell id="BYyM6eGmgJWS8Cs3bAvA-8" value="APS" style="ellipse;whiteSpace=wrap;html=1;" vertex="1" parent="WIyWlLk6GJQsqaUBKTNV-1">
          <mxGeometry x="370" y="240" width="70" height="40" as="geometry" />
        </mxCell>
        <mxCell id="BYyM6eGmgJWS8Cs3bAvA-13" style="edgeStyle=orthogonalEdgeStyle;rounded=0;orthogonalLoop=1;jettySize=auto;html=1;exitX=1;exitY=0.5;exitDx=0;exitDy=0;dashed=1;dashPattern=1 2;" edge="1" parent="WIyWlLk6GJQsqaUBKTNV-1" source="BYyM6eGmgJWS8Cs3bAvA-10" target="BYyM6eGmgJWS8Cs3bAvA-12">
          <mxGeometry relative="1" as="geometry" />
        </mxCell>
        <mxCell id="BYyM6eGmgJWS8Cs3bAvA-15" style="edgeStyle=orthogonalEdgeStyle;rounded=0;orthogonalLoop=1;jettySize=auto;html=1;exitX=1;exitY=0.5;exitDx=0;exitDy=0;entryX=0;entryY=0.5;entryDx=0;entryDy=0;dashed=1;dashPattern=1 2;" edge="1" parent="WIyWlLk6GJQsqaUBKTNV-1" source="BYyM6eGmgJWS8Cs3bAvA-10" target="BYyM6eGmgJWS8Cs3bAvA-14">
          <mxGeometry relative="1" as="geometry" />
        </mxCell>
        <mxCell id="BYyM6eGmgJWS8Cs3bAvA-17" style="edgeStyle=orthogonalEdgeStyle;rounded=0;orthogonalLoop=1;jettySize=auto;html=1;exitX=0.5;exitY=1;exitDx=0;exitDy=0;" edge="1" parent="WIyWlLk6GJQsqaUBKTNV-1" source="BYyM6eGmgJWS8Cs3bAvA-10" target="BYyM6eGmgJWS8Cs3bAvA-16">
          <mxGeometry relative="1" as="geometry" />
        </mxCell>
        <mxCell id="BYyM6eGmgJWS8Cs3bAvA-10" value="实名认证" style="rounded=1;whiteSpace=wrap;html=1;fontSize=12;glass=0;strokeWidth=1;shadow=0;" vertex="1" parent="WIyWlLk6GJQsqaUBKTNV-1">
          <mxGeometry x="90" y="340" width="120" height="40" as="geometry" />
        </mxCell>
        <mxCell id="BYyM6eGmgJWS8Cs3bAvA-12" value="APS" style="ellipse;whiteSpace=wrap;html=1;" vertex="1" parent="WIyWlLk6GJQsqaUBKTNV-1">
          <mxGeometry x="260" y="310" width="70" height="40" as="geometry" />
        </mxCell>
        <mxCell id="BYyM6eGmgJWS8Cs3bAvA-14" value="寿险OCR" style="ellipse;whiteSpace=wrap;html=1;" vertex="1" parent="WIyWlLk6GJQsqaUBKTNV-1">
          <mxGeometry x="260" y="370" width="70" height="40" as="geometry" />
        </mxCell>
        <mxCell id="BYyM6eGmgJWS8Cs3bAvA-20" style="edgeStyle=orthogonalEdgeStyle;rounded=0;orthogonalLoop=1;jettySize=auto;html=1;exitX=1;exitY=0.5;exitDx=0;exitDy=0;entryX=0;entryY=0.5;entryDx=0;entryDy=0;dashed=1;dashPattern=1 2;" edge="1" parent="WIyWlLk6GJQsqaUBKTNV-1" source="BYyM6eGmgJWS8Cs3bAvA-16" target="BYyM6eGmgJWS8Cs3bAvA-18">
          <mxGeometry relative="1" as="geometry" />
        </mxCell>
        <mxCell id="BYyM6eGmgJWS8Cs3bAvA-21" style="edgeStyle=orthogonalEdgeStyle;rounded=0;orthogonalLoop=1;jettySize=auto;html=1;exitX=1;exitY=0.5;exitDx=0;exitDy=0;entryX=0;entryY=0.5;entryDx=0;entryDy=0;dashed=1;dashPattern=1 2;" edge="1" parent="WIyWlLk6GJQsqaUBKTNV-1" source="BYyM6eGmgJWS8Cs3bAvA-16" target="BYyM6eGmgJWS8Cs3bAvA-19">
          <mxGeometry relative="1" as="geometry" />
        </mxCell>
        <mxCell id="BYyM6eGmgJWS8Cs3bAvA-32" value="" style="edgeStyle=orthogonalEdgeStyle;rounded=0;orthogonalLoop=1;jettySize=auto;html=1;" edge="1" parent="WIyWlLk6GJQsqaUBKTNV-1" source="BYyM6eGmgJWS8Cs3bAvA-16" target="BYyM6eGmgJWS8Cs3bAvA-31">
          <mxGeometry relative="1" as="geometry" />
        </mxCell>
        <mxCell id="BYyM6eGmgJWS8Cs3bAvA-16" value="绑卡" style="rounded=1;whiteSpace=wrap;html=1;fontSize=12;glass=0;strokeWidth=1;shadow=0;" vertex="1" parent="WIyWlLk6GJQsqaUBKTNV-1">
          <mxGeometry x="90" y="470" width="120" height="40" as="geometry" />
        </mxCell>
        <mxCell id="BYyM6eGmgJWS8Cs3bAvA-38" style="edgeStyle=orthogonalEdgeStyle;rounded=0;orthogonalLoop=1;jettySize=auto;html=1;exitX=1;exitY=0.5;exitDx=0;exitDy=0;dashed=1;dashPattern=1 2;" edge="1" parent="WIyWlLk6GJQsqaUBKTNV-1" source="BYyM6eGmgJWS8Cs3bAvA-18" target="BYyM6eGmgJWS8Cs3bAvA-37">
          <mxGeometry relative="1" as="geometry" />
        </mxCell>
        <mxCell id="BYyM6eGmgJWS8Cs3bAvA-18" value="APS" style="ellipse;whiteSpace=wrap;html=1;" vertex="1" parent="WIyWlLk6GJQsqaUBKTNV-1">
          <mxGeometry x="260" y="440" width="70" height="40" as="geometry" />
        </mxCell>
        <mxCell id="BYyM6eGmgJWS8Cs3bAvA-19" value="寿险OCR" style="ellipse;whiteSpace=wrap;html=1;" vertex="1" parent="WIyWlLk6GJQsqaUBKTNV-1">
          <mxGeometry x="260" y="500" width="70" height="40" as="geometry" />
        </mxCell>
        <mxCell id="BYyM6eGmgJWS8Cs3bAvA-22" value="UGW" style="ellipse;whiteSpace=wrap;html=1;" vertex="1" parent="WIyWlLk6GJQsqaUBKTNV-1">
          <mxGeometry x="370" y="140" width="70" height="40" as="geometry" />
        </mxCell>
        <mxCell id="BYyM6eGmgJWS8Cs3bAvA-24" value="一账通" style="ellipse;whiteSpace=wrap;html=1;" vertex="1" parent="WIyWlLk6GJQsqaUBKTNV-1">
          <mxGeometry x="260" y="50" width="70" height="40" as="geometry" />
        </mxCell>
        <mxCell id="BYyM6eGmgJWS8Cs3bAvA-25" value="壹钱包" style="ellipse;whiteSpace=wrap;html=1;" vertex="1" parent="WIyWlLk6GJQsqaUBKTNV-1">
          <mxGeometry x="344" y="50" width="70" height="40" as="geometry" />
        </mxCell>
        <mxCell id="BYyM6eGmgJWS8Cs3bAvA-34" style="edgeStyle=orthogonalEdgeStyle;rounded=0;orthogonalLoop=1;jettySize=auto;html=1;exitX=1;exitY=0.5;exitDx=0;exitDy=0;entryX=0;entryY=0.5;entryDx=0;entryDy=0;dashed=1;dashPattern=1 2;" edge="1" parent="WIyWlLk6GJQsqaUBKTNV-1" source="BYyM6eGmgJWS8Cs3bAvA-31" target="BYyM6eGmgJWS8Cs3bAvA-33">
          <mxGeometry relative="1" as="geometry" />
        </mxCell>
        <mxCell id="BYyM6eGmgJWS8Cs3bAvA-36" style="edgeStyle=orthogonalEdgeStyle;rounded=0;orthogonalLoop=1;jettySize=auto;html=1;exitX=1;exitY=0.5;exitDx=0;exitDy=0;entryX=0;entryY=0.5;entryDx=0;entryDy=0;dashed=1;dashPattern=1 2;" edge="1" parent="WIyWlLk6GJQsqaUBKTNV-1" source="BYyM6eGmgJWS8Cs3bAvA-31" target="BYyM6eGmgJWS8Cs3bAvA-35">
          <mxGeometry relative="1" as="geometry" />
        </mxCell>
        <mxCell id="BYyM6eGmgJWS8Cs3bAvA-40" style="edgeStyle=orthogonalEdgeStyle;rounded=0;orthogonalLoop=1;jettySize=auto;html=1;exitX=0.5;exitY=1;exitDx=0;exitDy=0;entryX=0.5;entryY=0;entryDx=0;entryDy=0;" edge="1" parent="WIyWlLk6GJQsqaUBKTNV-1" source="BYyM6eGmgJWS8Cs3bAvA-31" target="BYyM6eGmgJWS8Cs3bAvA-39">
          <mxGeometry relative="1" as="geometry" />
        </mxCell>
        <mxCell id="BYyM6eGmgJWS8Cs3bAvA-31" value="普惠担保" style="rounded=1;whiteSpace=wrap;html=1;fontSize=12;glass=0;strokeWidth=1;shadow=0;" vertex="1" parent="WIyWlLk6GJQsqaUBKTNV-1">
          <mxGeometry x="90" y="600" width="120" height="40" as="geometry" />
        </mxCell>
        <mxCell id="BYyM6eGmgJWS8Cs3bAvA-33" value="普惠" style="ellipse;whiteSpace=wrap;html=1;" vertex="1" parent="WIyWlLk6GJQsqaUBKTNV-1">
          <mxGeometry x="260" y="575" width="70" height="40" as="geometry" />
        </mxCell>
        <mxCell id="BYyM6eGmgJWS8Cs3bAvA-35" value="APS" style="ellipse;whiteSpace=wrap;html=1;" vertex="1" parent="WIyWlLk6GJQsqaUBKTNV-1">
          <mxGeometry x="260" y="625" width="70" height="40" as="geometry" />
        </mxCell>
        <mxCell id="BYyM6eGmgJWS8Cs3bAvA-37" value="平安付" style="ellipse;whiteSpace=wrap;html=1;" vertex="1" parent="WIyWlLk6GJQsqaUBKTNV-1">
          <mxGeometry x="370" y="440" width="70" height="40" as="geometry" />
        </mxCell>
        <mxCell id="BYyM6eGmgJWS8Cs3bAvA-42" style="edgeStyle=orthogonalEdgeStyle;rounded=0;orthogonalLoop=1;jettySize=auto;html=1;exitX=1;exitY=0.5;exitDx=0;exitDy=0;dashed=1;dashPattern=1 2;" edge="1" parent="WIyWlLk6GJQsqaUBKTNV-1" source="BYyM6eGmgJWS8Cs3bAvA-39" target="BYyM6eGmgJWS8Cs3bAvA-41">
          <mxGeometry relative="1" as="geometry" />
        </mxCell>
        <mxCell id="BYyM6eGmgJWS8Cs3bAvA-44" style="edgeStyle=orthogonalEdgeStyle;rounded=0;orthogonalLoop=1;jettySize=auto;html=1;exitX=1;exitY=0.5;exitDx=0;exitDy=0;dashed=1;dashPattern=1 2;" edge="1" parent="WIyWlLk6GJQsqaUBKTNV-1" source="BYyM6eGmgJWS8Cs3bAvA-39" target="BYyM6eGmgJWS8Cs3bAvA-43">
          <mxGeometry relative="1" as="geometry" />
        </mxCell>
        <mxCell id="BYyM6eGmgJWS8Cs3bAvA-46" style="edgeStyle=orthogonalEdgeStyle;rounded=0;orthogonalLoop=1;jettySize=auto;html=1;exitX=0.5;exitY=1;exitDx=0;exitDy=0;entryX=0.5;entryY=0;entryDx=0;entryDy=0;" edge="1" parent="WIyWlLk6GJQsqaUBKTNV-1" source="BYyM6eGmgJWS8Cs3bAvA-39" target="BYyM6eGmgJWS8Cs3bAvA-45">
          <mxGeometry relative="1" as="geometry" />
        </mxCell>
        <mxCell id="BYyM6eGmgJWS8Cs3bAvA-39" value="人脸" style="rounded=1;whiteSpace=wrap;html=1;fontSize=12;glass=0;strokeWidth=1;shadow=0;" vertex="1" parent="WIyWlLk6GJQsqaUBKTNV-1">
          <mxGeometry x="90" y="730" width="120" height="40" as="geometry" />
        </mxCell>
        <mxCell id="BYyM6eGmgJWS8Cs3bAvA-41" value="APS" style="ellipse;whiteSpace=wrap;html=1;" vertex="1" parent="WIyWlLk6GJQsqaUBKTNV-1">
          <mxGeometry x="260" y="700" width="70" height="40" as="geometry" />
        </mxCell>
        <mxCell id="BYyM6eGmgJWS8Cs3bAvA-43" value="寿险" style="ellipse;whiteSpace=wrap;html=1;" vertex="1" parent="WIyWlLk6GJQsqaUBKTNV-1">
          <mxGeometry x="260" y="750" width="70" height="40" as="geometry" />
        </mxCell>
        <mxCell id="BYyM6eGmgJWS8Cs3bAvA-48" style="edgeStyle=orthogonalEdgeStyle;rounded=0;orthogonalLoop=1;jettySize=auto;html=1;exitX=1;exitY=0.5;exitDx=0;exitDy=0;dashed=1;dashPattern=1 2;" edge="1" parent="WIyWlLk6GJQsqaUBKTNV-1" source="BYyM6eGmgJWS8Cs3bAvA-45" target="BYyM6eGmgJWS8Cs3bAvA-47">
          <mxGeometry relative="1" as="geometry" />
        </mxCell>
        <mxCell id="BYyM6eGmgJWS8Cs3bAvA-50" style="edgeStyle=orthogonalEdgeStyle;rounded=0;orthogonalLoop=1;jettySize=auto;html=1;exitX=1;exitY=0.5;exitDx=0;exitDy=0;dashed=1;dashPattern=1 2;" edge="1" parent="WIyWlLk6GJQsqaUBKTNV-1" source="BYyM6eGmgJWS8Cs3bAvA-45" target="BYyM6eGmgJWS8Cs3bAvA-49">
          <mxGeometry relative="1" as="geometry" />
        </mxCell>
        <mxCell id="BYyM6eGmgJWS8Cs3bAvA-52" style="edgeStyle=orthogonalEdgeStyle;rounded=0;orthogonalLoop=1;jettySize=auto;html=1;exitX=0.5;exitY=1;exitDx=0;exitDy=0;" edge="1" parent="WIyWlLk6GJQsqaUBKTNV-1" source="BYyM6eGmgJWS8Cs3bAvA-45" target="BYyM6eGmgJWS8Cs3bAvA-51">
          <mxGeometry relative="1" as="geometry" />
        </mxCell>
        <mxCell id="BYyM6eGmgJWS8Cs3bAvA-45" value="完善信息" style="rounded=1;whiteSpace=wrap;html=1;fontSize=12;glass=0;strokeWidth=1;shadow=0;" vertex="1" parent="WIyWlLk6GJQsqaUBKTNV-1">
          <mxGeometry x="90" y="850" width="120" height="40" as="geometry" />
        </mxCell>
        <mxCell id="BYyM6eGmgJWS8Cs3bAvA-47" value="APS" style="ellipse;whiteSpace=wrap;html=1;" vertex="1" parent="WIyWlLk6GJQsqaUBKTNV-1">
          <mxGeometry x="260" y="820" width="70" height="40" as="geometry" />
        </mxCell>
        <mxCell id="BYyM6eGmgJWS8Cs3bAvA-49" value="iRisk" style="ellipse;whiteSpace=wrap;html=1;" vertex="1" parent="WIyWlLk6GJQsqaUBKTNV-1">
          <mxGeometry x="260" y="880" width="70" height="40" as="geometry" />
        </mxCell>
        <mxCell id="BYyM6eGmgJWS8Cs3bAvA-54" style="edgeStyle=orthogonalEdgeStyle;rounded=0;orthogonalLoop=1;jettySize=auto;html=1;exitX=1;exitY=0.5;exitDx=0;exitDy=0;dashed=1;dashPattern=1 2;" edge="1" parent="WIyWlLk6GJQsqaUBKTNV-1" source="BYyM6eGmgJWS8Cs3bAvA-51" target="BYyM6eGmgJWS8Cs3bAvA-53">
          <mxGeometry relative="1" as="geometry" />
        </mxCell>
        <mxCell id="BYyM6eGmgJWS8Cs3bAvA-51" value="结果" style="rounded=1;whiteSpace=wrap;html=1;fontSize=12;glass=0;strokeWidth=1;shadow=0;" vertex="1" parent="WIyWlLk6GJQsqaUBKTNV-1">
          <mxGeometry x="90" y="960" width="120" height="40" as="geometry" />
        </mxCell>
        <mxCell id="BYyM6eGmgJWS8Cs3bAvA-53" value="APS" style="ellipse;whiteSpace=wrap;html=1;" vertex="1" parent="WIyWlLk6GJQsqaUBKTNV-1">
          <mxGeometry x="260" y="960" width="70" height="40" as="geometry" />
        </mxCell>
      </root>
    </mxGraphModel>
  </diagram>
</mxfile>
